<svg width="25" height="25" viewBox="0 0 25 25" fill="none" xmlns="http://www.w3.org/2000/svg">
<path d="M21.875 8.07292H3.125C2.69792 8.07292 2.34375 7.71875 2.34375 7.29167C2.34375 6.86458 2.69792 6.51042 3.125 6.51042H21.875C22.3021 6.51042 22.6562 6.86458 22.6562 7.29167C22.6562 7.71875 22.3021 8.07292 21.875 8.07292ZM21.875 13.2812H3.125C2.69792 13.2812 2.34375 12.9271 2.34375 12.5C2.34375 12.0729 2.69792 11.7188 3.125 11.7188H21.875C22.3021 11.7188 22.6562 12.0729 22.6562 12.5C22.6562 12.9271 22.3021 13.2812 21.875 13.2812ZM21.875 18.4896H3.125C2.69792 18.4896 2.34375 18.1354 2.34375 17.7083C2.34375 17.2812 2.69792 16.9271 3.125 16.9271H21.875C22.3021 16.9271 22.6562 17.2812 22.6562 17.7083C22.6562 18.1354 22.3021 18.4896 21.875 18.4896Z" fill="black"/>
</svg>
