<svg width="18" height="18" viewBox="0 0 18 18" fill="none" xmlns="http://www.w3.org/2000/svg">
<path d="M15 0H3V1.5H15V0ZM3 18H15V16.5H3V18ZM15 3H3C2.60218 3 2.22064 3.15804 1.93934 3.43934C1.65804 3.72064 1.5 4.10218 1.5 4.5V13.5C1.5 13.8978 1.65804 14.2794 1.93934 14.5607C2.22064 14.842 2.60218 15 3 15H15C15.3978 15 15.7794 14.842 16.0607 14.5607C16.342 14.2794 16.5 13.8978 16.5 13.5V4.5C16.5 4.10218 16.342 3.72064 16.0607 3.43934C15.7794 3.15804 15.3978 3 15 3ZM9 5.0625C9.44755 5.0625 9.87677 5.24029 10.1932 5.55676C10.5097 5.87323 10.6875 6.30245 10.6875 6.75C10.6875 7.19755 10.5097 7.62677 10.1932 7.94324C9.87677 8.25971 9.44755 8.4375 9 8.4375C8.55245 8.4375 8.12323 8.25971 7.80676 7.94324C7.49029 7.62677 7.3125 7.19755 7.3125 6.75C7.3125 6.30245 7.49029 5.87323 7.80676 5.55676C8.12323 5.24029 8.55245 5.0625 9 5.0625ZM12.75 12.75H5.25V11.625C5.25 10.3725 7.7475 9.75 9 9.75C10.2525 9.75 12.75 10.3725 12.75 11.625V12.75Z" fill="black"/>
</svg>
