<svg width="12" height="12" viewBox="0 0 12 12" fill="none" xmlns="http://www.w3.org/2000/svg">
<g clip-path="url(#clip0_132_10)">
<path d="M5.99994 6.715C6.2048 6.715 6.40766 6.67465 6.59693 6.59625C6.7862 6.51786 6.95817 6.40295 7.10303 6.25809C7.24789 6.11323 7.3628 5.94126 7.44119 5.75199C7.51959 5.56272 7.55994 5.35986 7.55994 5.155C7.55994 4.95014 7.51959 4.74728 7.44119 4.55802C7.3628 4.36875 7.24789 4.19677 7.10303 4.05191C6.95817 3.90706 6.7862 3.79215 6.59693 3.71375C6.40766 3.63535 6.2048 3.595 5.99994 3.595C5.5862 3.595 5.18941 3.75936 4.89685 4.05191C4.6043 4.34447 4.43994 4.74126 4.43994 5.155C4.43994 5.56874 4.6043 5.96553 4.89685 6.25809C5.18941 6.55064 5.5862 6.715 5.99994 6.715Z" stroke="black" stroke-width="1.5"/>
<path d="M1.8101 4.245C2.7951 -0.0849988 9.2101 -0.0799987 10.1901 4.25C10.7651 6.79 9.1851 8.94 7.8001 10.27C7.31614 10.7368 6.66998 10.9976 5.9976 10.9976C5.32522 10.9976 4.67906 10.7368 4.1951 10.27C2.8151 8.94 1.2351 6.785 1.8101 4.245Z" stroke="black" stroke-width="1.5"/>
</g>
<defs>
<clipPath id="clip0_132_10">
<rect width="12" height="12" fill="white"/>
</clipPath>
</defs>
</svg>
