<svg width="18" height="18" viewBox="0 0 18 18" fill="none" xmlns="http://www.w3.org/2000/svg">
<g clip-path="url(#clip0_136_147)">
<path d="M9.09007 9.585C9.0303 9.57749 8.96983 9.57749 8.91007 9.585C8.27403 9.56359 7.67122 9.29578 7.22898 8.83815C6.78674 8.38052 6.53971 7.7689 6.54007 7.1325C6.54007 5.775 7.63507 4.6725 9.00007 4.6725C9.64465 4.67138 10.2639 4.92361 10.7242 5.3748C11.1845 5.826 11.4491 6.44002 11.4609 7.08449C11.4727 7.72896 11.2308 8.35226 10.7873 8.82002C10.3438 9.28777 9.73426 9.56251 9.09007 9.585ZM14.0551 14.535C12.6768 15.8018 10.8721 16.5033 9.00007 16.5C7.05007 16.5 5.28007 15.7575 3.94507 14.535C4.02007 13.83 4.47007 13.14 5.27257 12.6C7.32757 11.235 10.6876 11.235 12.7276 12.6C13.5301 13.14 13.9801 13.83 14.0551 14.535Z" stroke="black" stroke-width="1.5" stroke-linecap="round" stroke-linejoin="round"/>
<path d="M9 16.5C13.1422 16.5 16.5 13.1422 16.5 9C16.5 4.85775 13.1422 1.5 9 1.5C4.85775 1.5 1.5 4.85775 1.5 9C1.5 13.1422 4.85775 16.5 9 16.5Z" stroke="black" stroke-width="1.5" stroke-linecap="round" stroke-linejoin="round"/>
</g>
<defs>
<clipPath id="clip0_136_147">
<rect width="18" height="18" fill="white"/>
</clipPath>
</defs>
</svg>
