<svg width="18" height="18" viewBox="0 0 18 18" fill="none" xmlns="http://www.w3.org/2000/svg">
<path d="M6.74466 3V5.625M6.74466 12.375V15M12.7462 3H5.24616C2.37366 3 1.57116 3.69 1.50366 6.375C2.95116 6.375 4.12116 7.5525 4.12116 9C4.12116 10.4475 2.95116 11.6175 1.50366 11.625C1.57116 14.31 2.37366 15 5.24616 15H12.7462C15.7462 15 16.4962 14.25 16.4962 11.25V6.75C16.4962 3.75 15.7462 3 12.7462 3Z" stroke="black" stroke-width="1.5" stroke-linecap="round" stroke-linejoin="round"/>
<path d="M11.2688 6.9975L11.7338 7.935C11.7788 8.025 11.8688 8.0925 11.9663 8.1075L13.0013 8.2575C13.2563 8.295 13.3613 8.61 13.1738 8.79L12.4238 9.5175C12.3488 9.585 12.3188 9.69 12.3338 9.795L12.5138 10.8225C12.5588 11.0775 12.2888 11.2725 12.0638 11.1525L11.1413 10.665C11.0958 10.6428 11.0457 10.6313 10.9951 10.6313C10.9444 10.6313 10.8944 10.6428 10.8488 10.665L9.92631 11.1525C9.69381 11.2725 9.43131 11.0775 9.47631 10.8225L9.65631 9.795C9.66467 9.74492 9.66085 9.69356 9.64519 9.64526C9.62953 9.59696 9.60247 9.55314 9.56631 9.5175L8.82381 8.79C8.78204 8.7494 8.75246 8.69792 8.73843 8.64139C8.7244 8.58485 8.72648 8.52551 8.74443 8.4701C8.76239 8.41468 8.79549 8.3654 8.84001 8.32782C8.88452 8.29025 8.93867 8.26589 8.99631 8.2575L10.0313 8.1075C10.1363 8.0925 10.2188 8.0325 10.2638 7.935L10.7213 6.9975C10.8263 6.765 11.1563 6.765 11.2688 6.9975Z" stroke="black" stroke-width="1.5" stroke-linecap="round" stroke-linejoin="round"/>
</svg>
