<svg width="25" height="25" viewBox="0 0 25 25" fill="none" xmlns="http://www.w3.org/2000/svg">
<path d="M12.5 12.5C13.8813 12.5 15.2061 11.9513 16.1828 10.9745C17.1596 9.99776 17.7083 8.673 17.7083 7.29167C17.7083 5.91033 17.1596 4.58557 16.1828 3.60882C15.2061 2.63207 13.8813 2.08333 12.5 2.08333C11.1187 2.08333 9.7939 2.63207 8.81715 3.60882C7.8404 4.58557 7.29167 5.91033 7.29167 7.29167C7.29167 8.673 7.8404 9.99776 8.81715 10.9745C9.7939 11.9513 11.1187 12.5 12.5 12.5ZM12.5 15.1042C7.28125 15.1042 3.03125 18.6042 3.03125 22.9167C3.03125 23.2083 3.26042 23.4375 3.55208 23.4375H21.4479C21.7396 23.4375 21.9688 23.2083 21.9688 22.9167C21.9688 18.6042 17.7188 15.1042 12.5 15.1042Z" fill="black"/>
</svg>
